<svg width="64" height="64" viewBox="0 0 64 64" fill="none" xmlns="http://www.w3.org/2000/svg">
  <defs>
    <linearGradient id="pmGradient" x1="8" y1="10" x2="56" y2="54" gradientUnits="userSpaceOnUse">
      <stop offset="0" stop-color="#3B82F6" />
      <stop offset="1" stop-color="#06B6D4" />
    </linearGradient>
  </defs>
  <rect x="8" y="10" width="48" height="44" rx="14" fill="url(#pmGradient)" />
  <path d="M20 24h16c4.418 0 8 3.582 8 8s-3.582 8-8 8h-3.6L28 44v-6h-8c-4.418 0-8-3.582-8-8s3.582-8 8-8z" fill="#F0F9FF" fill-opacity="0.95" />
  <path d="M22 26h6c3.314 0 6 2.686 6 6s-2.686 6-6 6h-2v6h-4V26z" fill="#0F172A" fill-opacity="0.7" />
  <path d="M33 26h8l3.4 5.3 2.6-5.3h4l-5.6 8.7L52 44h-4l-3.5-5.4L41 44h-4l5.6-9.1L33 26z" fill="#0F172A" fill-opacity="0.7" />
</svg>
